HIERARCHY
ROOT ui
{
	 OFFSET 0 0 0
	 CHANNELS 3 XPosition YPosition Z Position
	 EndSite
	 {
	 OFFSET 0 -1 0
	 }
}
ROOT li
{
	 OFFSET 0 0 0
	 CHANNELS 3 XPosition YPosition Z Position
	 EndSite
	 {
	 OFFSET 0 -1 0
	 }
}
ROOT ul
{
	 OFFSET 0 0 0
	 CHANNELS 3 XPosition YPosition Z Position
	 EndSite
	 {
	 OFFSET 0 -1 0
	 }
}
ROOT ll
{
	 OFFSET 0 0 0
	 CHANNELS 3 XPosition YPosition Z Position
	 EndSite
	 {
	 OFFSET 0 -1 0
	 }
}
ROOT tt
{
	 OFFSET 0 0 0
	 CHANNELS 3 XPosition YPosition Z Position
	 EndSite
	 {
	 OFFSET 0 -1 0
	 }
}
ROOT tb
{
	 OFFSET 0 0 0
	 CHANNELS 3 XPosition YPosition Z Position
	 EndSite
	 {
	 OFFSET 0 -1 0
	 }
}
ROOT td
{
	 OFFSET 0 0 0
	 CHANNELS 3 XPosition YPosition Z Position
	 EndSite
	 {
	 OFFSET 0 -1 0
	 }
}
ROOT v
{
	 OFFSET 0 0 0
	 CHANNELS 3 XPosition YPosition Z Position
	 EndSite
	 {
	 OFFSET 0 -1 0
	 }
}
ROOT bn
{
	 OFFSET 0 0 0
	 CHANNELS 3 XPosition YPosition Z Position
	 EndSite
	 {
	 OFFSET 0 -1 0
	 }
}
MOTION
Frames: 32
Frame Time: 0.002
2.68328994512558E-4	2.2347399592399596E-4	0		0.45159713745117186	-2.32347265625	0		-0.9718431396484375	0.0031072890758514406	0		-0.7720734252929687	-2.239947265625	0		1.631344482421875	-0.4998670349121094	0		3.35271923828125	-0.06045974349975586	0		4.71386865234375	-0.010491504669189453	0		5.61172265625	0.08200689697265626	0		0.01886450958251953	6.01189892578125	0		
2.542169988155365E-4	2.335299998521805E-4	0		0.44282672119140626	-2.315280029296875	0		-1.046826416015625	0.005453939914703369	0		-0.8188041381835938	-2.22910791015625	0		1.6313509521484375	-0.4997900695800781	0		3.36283447265625	-0.05349686050415039	0		4.70974560546875	-0.016213605880737305	0		5.61755712890625	0.07413842010498047	0		-0.015482324600219727	6.00753466796875	0		
-0.0038366899490356447	-0.0036817550659179687	0		0.45175872802734374	-2.3234140625	0		-0.976929931640625	1.3902899622917175E-4	0		-0.748904296875	-2.239412353515625	0		1.6252266845703125	-0.5065989379882813	0		3.337859375	-0.05088576126098633	0		4.701857421875	-0.008857459068298339	0		5.61168310546875	0.08249633026123047	0		-0.01575579643249512	6.00754443359375	0		
2.129800021648407E-4	2.559329867362976E-4	0		0.43372991943359374	-2.329052978515625	0		-1.0468680419921874	0.005386487007141113	0		-0.8077837524414062	-2.236355712890625	0		1.6587998046875	-0.5301342163085937	0		3.3485810546875	-0.06492811584472656	0		4.7018349609375	-0.00864206600189209	0		5.61165673828125	0.08275115966796875	0		0.0021040709018707274	6.01522509765625	0		
0.0032395689487457273	0.0032135300636291506	0		0.464835693359375	-2.327586669921875	0		-0.95972802734375	0.013766071319580079	0		-0.80364111328125	-2.232451904296875	0		1.6677392578125	-0.5332122802734375	0		3.35013916015625	-0.03279214096069336	0		4.70591650390625	-0.0024971439838409426	0		5.61575244140625	0.089935791015625	0		0.034916748046875	6.0206357421875	0		
0.0032070379257202147	0.0032278940677642823	0		0.4560707702636719	-2.3183896484375	0		-0.96381494140625	0.010811320304870605	0		-0.81342822265625	-2.22429248046875	0		1.63133642578125	-0.4994574890136719	0		3.346763427734375	-0.05157294464111328	0		4.713755859375	-0.009420319557189942	0		5.61158935546875	0.08327079772949218	0		0.01747701072692871	6.0129619140625	0		
1.1518300324678421E-4	2.9844799637794496E-4	0		0.452044189453125	-2.323281005859375	0		-0.9779053344726563	0.008039172172546388	0		-0.8106233520507813	-2.238364501953125	0		1.6313204345703125	-0.4993707580566406	0		3.341855712890625	-0.04432176971435547	0		4.7078828125	-9.165199846029282E-5	0		5.6067119140625	0.09262052917480469	0		0.017158538818359374	6.011978515625	0		
7.086499780416489E-5	3.1454101204872134E-4	0		0.425139892578125	-2.32075732421875	0		-0.9720414428710937	0.002905663013458252	0		-0.8204435424804688	-2.231203369140625	0		1.625171875	-0.5061751403808594	0		3.3585751953125	-0.05746818542480469	0		4.70956640625	-0.014907856941223145	0		5.6115	0.08378751373291016	0		-0.017227916717529296	6.007611328125	0		
-0.004052840232849121	-0.0035968689918518064	0		0.4521431274414062	-2.323211181640625	0		-1.0470633544921875	0.005235115051269531	0		-0.8074959106445313	-2.236455322265625	0		1.6312659912109375	-0.4992017517089844	0		3.332800537109375	-0.04184675598144531	0		4.701642578125	-0.007554287910461426	0		5.6114443359375	0.08403504943847656	0		-0.0023140249252319336	6.019353515625	0		
-4.23629991710186E-5	3.4478598833084106E-4	0		0.43610391235351564	-2.326889892578125	0		-1.04305322265625	0.009135769844055177	0		-0.805433349609375	-2.234509033203125	0		1.631224609375	-0.49912310791015624	0		3.358466552734375	-0.05716717147827149	0		4.70772509765625	5.356690287590027E-4	0		5.61138037109375	0.08427015686035157	0		-0.016843637466430663	6.0066220703125	0		
-1.1313600093126297E-4	3.5756999254226687E-4	0		0.45422402954101565	-2.321185546875	0		-1.047195556640625	0.0051825990676879884	0		-0.8152761840820313	-2.226347412109375	0		1.6311722412109375	-0.4990500793457031	0		3.3576318359375	-0.04401449966430664	0		4.70151123046875	-0.007168558120727539	0		5.61130615234375	0.08449013519287109	0		-0.017136186599731446	6.00663427734375	0		
-1.940699964761734E-4	3.6823201179504397E-4	0		0.4252273864746094	-2.320638916015625	0		-0.9723067626953125	0.0028117449283599854	0		-0.7813759155273438	-2.23197412109375	0		1.6249837646484375	-0.5058746948242188	0		3.368281494140625	-0.059083641052246096	0		4.71341064453125	-0.008211801528930664	0		5.61122265625	0.0846932601928711	0		0.01569716739654541	6.01305126953125	0		
-0.004356490135192871	-0.003551285982131958	0		0.45216897583007815	-2.3231005859375	0		-0.9783076782226563	0.007895963191986084	0		-0.8203906860351563	-2.2312919921875	0		1.6208372802734374	-0.5097429504394532	0		3.337358154296875	-0.04941543197631836	0		4.70748193359375	0.0010510109663009644	0		5.61112841796875	0.0848783416748047	0		-0.018685806274414064	6.007669921875	0		
-0.004458219051361084	-0.00354581093788147	0		0.425173828125	-2.320599609375	0		-1.04747021484375	0.005108108997344971	0		-0.8183931274414062	-2.229345947265625	0		1.624821044921875	-0.5057630920410157	0		3.35696826171875	-0.06566927337646485	0		4.707076171875	-0.015805730819702147	0		5.61102392578125	0.08504478454589844	0		-0.0349215202331543	6.00996044921875	0		
0.002554214000701904	0.003331299066543579	0		0.4401020202636719	-2.32185302734375	0		-1.035387451171875	0.015868334770202636	0		-0.8035029907226563	-2.232631103515625	0		1.6613594970703125	-0.526375244140625	0		3.36135791015625	-0.03765505599975586	0		4.72208740234375	-0.00894969654083252	0		5.61091015625	0.08519316101074219	0		-0.0010866869688034057	6.01535498046875	0		
0.0024340879917144776	0.0033330790996551514	0		0.45610470581054685	-2.318126953125	0		-0.9686611328125	0.0066523818969726565	0		-0.7327073364257812	-2.2409130859375	0		1.6307381591796875	-0.49878640747070313	0		3.337028564453125	-0.04914532852172852	0		4.7071484375	0.0014276280403137207	0		5.6107880859375	0.08532521057128906	0		0.014597496032714844	6.01207177734375	0		
-7.463200092315674E-4	3.875260055065155E-4	0		0.4539725036621094	-2.321080810546875	0		-1.04782958984375	0.005040418148040771	0		-0.8155432739257813	-2.226451416015625	0		1.63062109375	-0.49875192260742185	0		3.336902099609375	-0.0490753173828125	0		4.71285986328125	-0.007579267978668213	0		5.60651708984375	0.07751512145996094	0		0.014344856262207032	6.01207275390625	0		
-8.801090121269226E-4	3.8663700222969056E-4	0		0.45184649658203124	-2.32303759765625	0		-0.9729931030273438	0.0026856479644775393	0		-0.7468246459960938	-2.23769384765625	0		1.620302490234375	-0.5095428771972657	0		3.347518310546875	-0.06320782470703125	0		4.70074560546875	-0.006279345989227295	0		5.61052392578125	0.08554579162597656	0		0.014117354393005372	6.01307177734375	0		
-0.005089856147766113	-0.0035442399978637697	0		0.43364105224609373	-2.3287119140625	0		-1.048102783203125	0.0050005149841308594	0		-0.80791796875	-2.2366240234375	0		1.630365478515625	-0.49869876098632815	0		3.362751220703125	-0.04242619323730469	0		4.7006064453125	-0.006205786228179932	0		5.61038330078125	0.08563409423828125	0		-0.03814667892456055	6.011994140625	0		
-0.0011627520322799682	3.7937599420547483E-4	0		0.4287614440917969	-2.315623779296875	0		-0.9732758178710937	0.0026492629051208497	0		-0.8138164672851562	-2.224534912109375	0		1.6302288818359374	-0.4986809387207031	0		3.351325927734375	-0.05818661880493164	0		4.7165673828125	-4.309369921684265E-4	0		5.61023876953125	0.0857066421508789	0		-0.019464570999145506	6.00665234375	0		
-0.0013082460165023803	3.727230131626129E-4	0		0.42660696411132815	-2.317589599609375	0		-1.0483917236328124	0.004962975978851318	0		-0.8061156005859375	-2.23469140625	0		1.630089111328125	-0.49866915893554686	0		3.356446533203125	-0.043246471405029296	0		4.71229833984375	-0.007312091827392578	0		5.61009228515625	0.08576348114013672	0		-0.020660112380981446	6.0076630859375	0		
-0.0014533109664916991	3.642039895057678E-4	0		0.45139016723632813	-2.323037109375	0		-0.9735664672851563	0.0026143109798431397	0		-0.819149658203125	-2.229477294921875	0		1.6238251953125	-0.5055553588867188	0		3.345179443359375	-0.050028369903564456	0		4.6953154296875	0.002022205114364624	0		5.6099462890625	0.08580564880371094	0		0.013241676330566407	6.01305029296875	0		
-0.005665266036987305	-0.003574424982070923	0		0.41544775390625	-2.3124072265625	0		-1.0486785888671875	0.004927497863769531	0		-0.83116748046875	-2.22328125	0		1.6196168212890625	-0.509482666015625	0		3.336057373046875	-0.04885579299926758	0		4.71201171875	-0.007255422115325928	0		5.60980419921875	0.08583451080322266	0		-0.005832411766052246	6.0193759765625	0		
-0.0017295290231704712	3.424299955368042E-4	0		0.4599986572265625	-2.3312119140625	0		-1.0488131103515625	0.004910622119903564	0		-0.80852490234375	-2.236702880859375	0		1.62355517578125	-0.5055575561523438	0		3.355635986328125	-0.06520256042480468	0		4.70985986328125	-0.00820745086669922	0		5.6096689453125	0.08585141754150391	0		-0.018261632919311523	6.00457958984375	0		
0.0012000080347061158	0.0032764179706573486	0		0.43904617309570315	-2.321851806640625	0		-1.0367431640625	0.015680272102355956	0		-0.8045703125	-2.232789306640625	0		1.6570205078125	-0.5291636352539062	0		3.37598876953125	-0.03856246566772461	0		4.7080029296875	0.006829123973846435	0		5.6136689453125	0.09278589630126953	0		-0.03731335067749023	6.0099033203125	0		
0.001093029022216797	0.003263780117034912	0		0.48195465087890627	-2.3216259765625	0		-0.9740728759765624	0.002550693988800049	0		-0.814529541015625	-2.22462744140625	0		1.65691455078125	-0.529173095703125	0		3.340568115234375	-0.05594529342651367	0		4.71164697265625	-0.007243123054504395	0		5.6094384765625	0.08585611724853516	0		-0.021469911575317382	6.007607421875	0		
-0.002045599937438965	3.045099973678589E-4	0		0.42593295288085936	-2.317646240234375	0		-0.9800692138671875	0.007642407894134521	0		-0.782742431640625	-2.23220751953125	0		1.6191719970703125	-0.5095137939453125	0		3.351604736328125	-0.04915108871459961	0		4.7057216796875	0.0018534380197525024	0		5.6093525390625	0.08584860229492187	0		0.012539400100708007	6.01299072265625	0		
0.02081952095031738	-0.004116213798522949	0		0.4777237854003906	-2.326580078125	0		-0.9792715454101563	-3.8822400569915773E-4	0		-0.8217955322265625	-2.2315302734375	0		1.61911181640625	-0.509526611328125	0		3.340421875	-0.055966934204101565	0		4.71150048828125	-0.0072627348899841305	0		5.60031103515625	0.08699720764160156	0		0.012475937843322753	6.01297705078125	0		
-0.002137434959411621	2.7596500515937806E-4	0		0.4346825256347656	-2.326832275390625	0		-1.0492210693359374	0.004836543083190918	0		-0.7729754028320313	-2.240412841796875	0		1.647526611328125	-0.5410498657226562	0		3.345655517578125	-0.04107113265991211	0		4.70945166015625	-0.008239657402038573	0		5.6092607421875	0.08582575225830077	0		-0.005484809875488281	6.01728076171875	0		
0.02383942222595215	-0.0012009990215301513	0		0.4636784362792969	-2.3273623046875	0		-1.049222412109375	0.004819447994232178	0		-0.8068810424804688	-2.234827880859375	0		1.6292730712890624	-0.49873468017578126	0		3.34626416015625	-0.06309909439086914	0		4.71559130859375	-3.598980009555817E-4	0		5.60925927734375	0.08581381225585938	0		-0.005490800857543945	6.01726416015625	0		
9.414049983024598E-4	0.0031884400844573975	0		0.42587429809570315	-2.317707275390625	0		-0.9742244873046875	0.0024714500904083254	0		-0.8167073974609375	-2.22667041015625	0		1.6293011474609376	-0.498750244140625	0		3.371642333984375	-0.043558727264404296	0		4.69878125	0.008928288459777832	0		5.60444677734375	0.09489043426513671	0		-0.005470858097076416	6.01724658203125	0		
-0.006128996849060059	-0.003705221891403198	0		0.45287380981445313	-2.321203369140625	0		-0.9741719360351563	0.002450800895690918	0		-0.819703369140625	-2.22963720703125	0		1.6191612548828125	-0.5095870361328125	0		3.356467041015625	-0.056303321838378904	0		4.7115478515625	-0.007309534072875976	0		5.6093388671875	0.08579499053955078	0		0.01249664306640625	6.01290966796875	0		
